<svg width="76" height="76" viewBox="0 0 76 76" fill="none" xmlns="http://www.w3.org/2000/svg">
<g clip-path="url(#clip0)">
<rect width="76" height="76" fill="white"/>
<path d="M58.0991 32.5794C58.0974 32.5653 58.0963 32.551 58.0943 32.5371C58.0843 32.4676 58.0711 32.3983 58.0523 32.3299C58.0522 32.3292 58.0518 32.3285 58.0516 32.3276C58.0341 32.2637 58.0117 32.2006 57.9865 32.1381C57.9792 32.1203 57.9713 32.1031 57.9636 32.0855C57.9437 32.0405 57.9215 31.9961 57.8974 31.9524C57.8869 31.9334 57.8768 31.9143 57.8654 31.8955C57.8594 31.8854 57.8546 31.8749 57.8482 31.8648C57.8228 31.8243 57.7949 31.7863 57.7667 31.7487C57.7614 31.7416 57.7571 31.7342 57.7518 31.7274C57.7088 31.6717 57.6624 31.6199 57.6137 31.5709C57.6046 31.5616 57.5946 31.553 57.5851 31.5441C57.5428 31.5033 57.499 31.4652 57.4533 31.4292C57.4416 31.4201 57.4302 31.411 57.4182 31.4022C57.357 31.3568 57.2939 31.3145 57.228 31.2779L31.8963 16.8788L46.4815 7.69451L70.9332 21.5931L60.6353 28.0777C59.8316 28.5835 59.5904 29.6453 60.0964 30.4488C60.6023 31.2525 61.6638 31.4937 62.4675 30.9877L75.1959 22.9728C75.7076 22.6508 76.0124 22.0835 75.9987 21.479C75.9851 20.8744 75.6551 20.3218 75.1293 20.0229L47.2858 4.19613C46.7351 3.88285 46.0564 3.89832 45.52 4.23585L27.6453 15.4915C27.6417 15.4937 27.6379 15.4962 27.6343 15.4984L18.7023 21.1229C18.6982 21.1254 18.6941 21.128 18.6901 21.1306L0.803225 32.394C0.291518 32.7161 -0.0133395 33.2833 0.000416017 33.8879C0.0139996 34.4924 0.343961 35.045 0.869767 35.3439L28.7134 51.1707C28.9772 51.3208 29.2702 51.3954 29.563 51.3954C29.8816 51.3954 30.1997 51.3069 30.4791 51.131L43.2075 43.1159C44.0112 42.6101 44.2524 41.5483 43.7464 40.7448C43.2407 39.9412 42.1787 39.6997 41.3753 40.206L29.5178 47.6725L5.06607 33.7735L19.6514 24.5891L45.7303 39.4128V59.0457C45.7303 59.672 46.0705 60.2485 46.6187 60.5511C46.8778 60.6942 47.1639 60.7652 47.4497 60.7652C47.7685 60.7652 48.0866 60.6766 48.3658 60.5007L57.3093 54.869C57.8094 54.5542 58.1127 54.0049 58.1127 53.4141V32.7807C58.1127 32.7706 58.111 32.7609 58.1106 32.7508C58.1096 32.6937 58.1058 32.6366 58.0991 32.5794ZM49.1692 55.9313V38.4126C49.1692 37.7941 48.837 37.2234 48.2993 36.9179L22.9528 22.5105L28.5948 18.9576L53.0463 32.8564L50.9054 34.2044C50.1018 34.7103 49.8605 35.772 50.3666 36.5755C50.6933 37.0948 51.2519 37.379 51.8233 37.379C52.1362 37.379 52.4533 37.2936 52.7377 37.1144L54.6736 35.8955V52.4651L49.1692 55.9313Z" fill="url(#paint0_linear)"/>
<path d="M73.3643 26.9404L60.6359 34.9553C59.8322 35.4611 59.591 36.5229 60.097 37.3264C60.4237 37.8456 60.9823 38.1299 61.5537 38.1299C61.8667 38.1299 62.1837 38.0444 62.4681 37.8652L75.1965 29.8504C76.0002 29.3445 76.2414 28.2828 75.7354 27.4793C75.2295 26.6756 74.1678 26.4342 73.3643 26.9404Z" fill="url(#paint1_linear)"/>
<path d="M41.3755 47.0836L29.518 54.5501L2.56935 39.2321C1.74436 38.7631 0.694127 39.0512 0.22489 39.8773C-0.244346 40.7028 0.0443486 41.7525 0.870026 42.2217L28.7137 58.0485C28.9775 58.1986 29.2704 58.2732 29.5633 58.2732C29.8819 58.2732 30.2 58.1847 30.4794 58.0088L43.2078 49.9938C44.0114 49.4879 44.2527 48.4262 43.7466 47.6227C43.2409 46.8188 42.179 46.5774 41.3755 47.0836Z" fill="url(#paint2_linear)"/>
<path d="M73.3643 33.8182L60.6359 41.8331C59.8322 42.3389 59.591 43.4007 60.097 44.2042C60.4237 44.7235 60.9823 45.0077 61.5537 45.0077C61.8667 45.0077 62.1837 44.9222 62.4681 44.7431L75.1965 36.7282C76.0002 36.2223 76.2414 35.1606 75.7354 34.3571C75.2295 33.5532 74.1678 33.312 73.3643 33.8182Z" fill="url(#paint3_linear)"/>
<path d="M41.3755 53.9614L29.518 61.4279L2.56935 46.1099C1.74436 45.6408 0.694127 45.929 0.22489 46.755C-0.244346 47.5805 0.0443486 48.6302 0.870026 49.0995L28.7137 64.9263C28.9775 65.0764 29.2704 65.151 29.5633 65.151C29.8819 65.151 30.2 65.0624 30.4794 64.8865L43.2078 56.8715C44.0114 56.3657 44.2527 55.3039 43.7466 54.5004C43.2409 53.6964 42.179 53.4552 41.3755 53.9614Z" fill="url(#paint4_linear)"/>
<path d="M73.3643 40.696L60.6359 48.7109C59.8322 49.2167 59.591 50.2785 60.097 51.082C60.4237 51.6013 60.9823 51.8855 61.5537 51.8855C61.8667 51.8855 62.1837 51.8 62.4681 51.6208L75.1965 43.606C76.0002 43.1001 76.2414 42.0384 75.7354 41.2349C75.2295 40.4312 74.1678 40.19 73.3643 40.696Z" fill="url(#paint5_linear)"/>
<path d="M41.3755 60.8392L29.518 68.3057L2.56935 52.9877C1.74436 52.5186 0.694127 52.8068 0.22489 53.6328C-0.244346 54.4583 0.0443486 55.508 0.870026 55.9773L28.7137 71.8041C28.9775 71.9542 29.2704 72.0288 29.5633 72.0288C29.8819 72.0288 30.2 71.9403 30.4794 71.7644L43.2078 63.7493C44.0114 63.2435 44.2527 62.1817 43.7466 61.3782C43.2409 60.5744 42.179 60.333 41.3755 60.8392Z" fill="url(#paint6_linear)"/>
</g>
<defs>
<linearGradient id="paint0_linear" x1="37.9995" y1="3.9715" x2="37.9995" y2="60.7652" gradientUnits="userSpaceOnUse">
<stop stop-color="#5C258D"/>
<stop offset="1" stop-color="#4389A2"/>
</linearGradient>
<linearGradient id="paint1_linear" x1="67.9162" y1="26.6757" x2="67.9162" y2="38.1299" gradientUnits="userSpaceOnUse">
<stop stop-color="#5C258D"/>
<stop offset="1" stop-color="#4389A2"/>
</linearGradient>
<linearGradient id="paint2_linear" x1="22.0056" y1="39.0072" x2="22.0056" y2="58.2732" gradientUnits="userSpaceOnUse">
<stop stop-color="#5C258D"/>
<stop offset="1" stop-color="#4389A2"/>
</linearGradient>
<linearGradient id="paint3_linear" x1="67.9162" y1="33.5534" x2="67.9162" y2="45.0077" gradientUnits="userSpaceOnUse">
<stop stop-color="#5C258D"/>
<stop offset="1" stop-color="#4389A2"/>
</linearGradient>
<linearGradient id="paint4_linear" x1="22.0056" y1="45.8849" x2="22.0056" y2="65.151" gradientUnits="userSpaceOnUse">
<stop stop-color="#5C258D"/>
<stop offset="1" stop-color="#4389A2"/>
</linearGradient>
<linearGradient id="paint5_linear" x1="67.9162" y1="40.4313" x2="67.9162" y2="51.8855" gradientUnits="userSpaceOnUse">
<stop stop-color="#5C258D"/>
<stop offset="1" stop-color="#4389A2"/>
</linearGradient>
<linearGradient id="paint6_linear" x1="22.0056" y1="52.7628" x2="22.0056" y2="72.0288" gradientUnits="userSpaceOnUse">
<stop stop-color="#5C258D"/>
<stop offset="1" stop-color="#4389A2"/>
</linearGradient>
<clipPath id="clip0">
<rect width="76" height="76" fill="white"/>
</clipPath>
</defs>
</svg>
