<svg width="76" height="76" viewBox="0 0 76 76" fill="none" xmlns="http://www.w3.org/2000/svg">
<rect width="76" height="76" fill="white"/>
<path d="M53.5503 42.937C56.137 39.5261 57.5042 35.4549 57.5042 31.1633C57.5042 25.9014 55.4405 20.9688 51.6931 17.274C47.9465 13.58 42.9807 11.5852 37.7182 11.6612C32.6183 11.7334 27.8136 13.7798 24.189 17.4234C20.5645 21.0668 18.543 25.8824 18.4967 30.9828C18.457 35.3552 19.8322 39.4996 22.4735 42.9682C26.7615 48.599 29.1231 55.4963 29.1231 62.3896V69.9322C29.1231 73.278 31.845 75.9998 35.1907 75.9998H40.8345C44.1802 75.9998 46.9021 73.2778 46.9021 69.9322V62.3901C46.9022 55.4206 49.1845 48.6937 53.5503 42.937ZM24.463 41.4533C22.1611 38.4305 20.9626 34.8178 20.9971 31.0056C21.0803 21.8474 28.5971 14.2912 37.7535 14.1617C42.3469 14.1 46.6713 15.8346 49.9374 19.055C53.2044 22.276 55.0035 26.5763 55.0035 31.1635C55.0035 34.9048 53.812 38.4535 51.5578 41.4261C46.9577 47.4919 44.4809 54.5684 44.3796 61.9198H31.6202C31.5157 54.6398 28.9834 47.3892 24.463 41.4533ZM31.6237 69.0849V68.0726L44.4016 69.5365V69.9322C44.4016 70.1406 44.3799 70.3437 44.3456 70.5422L31.6237 69.0849ZM31.6237 65.5556V64.4205H44.4016V67.0195L31.6237 65.5556ZM35.1907 73.4993C33.8475 73.4993 32.6764 72.7525 32.068 71.6527L42.832 72.8858C42.2617 73.2728 41.5742 73.4992 40.8347 73.4992H35.1907V73.4993Z" fill="url(#paint0_linear)"/>
<path d="M25.636 33.0441C25.5385 32.3897 25.492 31.7176 25.4981 31.0464C25.5045 30.3559 24.9498 29.7911 24.2593 29.7847C23.5735 29.7787 23.004 30.333 22.9977 31.0235C22.9903 31.8254 23.0458 32.6293 23.1627 33.413C23.2552 34.0335 23.7887 34.4791 24.3978 34.4791C24.4592 34.4791 24.5214 34.4746 24.5839 34.4653C25.2667 34.3632 25.7379 33.7271 25.636 33.0441Z" fill="url(#paint1_linear)"/>
<path d="M32.9941 52.0361C33.1235 52.0361 33.2552 52.0158 33.3849 51.9732C34.0409 51.7575 34.3978 51.0508 34.1821 50.395C32.7964 46.1811 30.7312 42.2551 28.0438 38.7263C27.5997 38.143 27.2061 37.5217 26.8742 36.8793C26.5571 36.2658 25.8027 36.0258 25.1892 36.3428C24.5759 36.6599 24.3357 37.4143 24.6528 38.0278C25.0512 38.7983 25.5226 39.543 26.0545 40.2414C28.5728 43.5482 30.5081 47.2272 31.8066 51.176C31.9797 51.7023 32.4686 52.0361 32.9941 52.0361Z" fill="url(#paint2_linear)"/>
<path d="M51.1377 35.4448C50.5035 35.1715 49.7678 35.4643 49.4947 36.0984C49.0986 37.0183 48.586 37.8957 47.9712 38.7063C47.5539 39.2564 47.6618 40.0408 48.2119 40.4581C48.4378 40.6294 48.7032 40.7121 48.9664 40.7121C49.3444 40.7121 49.7178 40.5416 49.9637 40.2172C50.7004 39.2457 51.3152 38.1928 51.7913 37.0877C52.0646 36.4535 51.772 35.7178 51.1377 35.4448Z" fill="url(#paint3_linear)"/>
<path d="M38.0001 18.6612C44.8939 18.6612 50.5023 24.2699 50.5023 31.1637C50.5023 31.5556 50.4843 31.9505 50.4488 32.3375C50.3858 33.0251 50.8919 33.6336 51.5796 33.6968C51.6185 33.7003 51.657 33.7022 51.6953 33.7022C52.3343 33.7022 52.8794 33.2149 52.939 32.566C52.9813 32.1034 53.003 31.6316 53.003 31.1637C53.003 22.891 46.2727 16.1606 38.0001 16.1606C37.3096 16.1606 36.7498 16.7204 36.7498 17.4109C36.7498 18.1014 37.3096 18.6612 38.0001 18.6612Z" fill="url(#paint4_linear)"/>
<path d="M38.0001 9.50248C38.6906 9.50248 39.2504 8.94267 39.2504 8.25216V1.25033C39.2504 0.559813 38.6906 0 38.0001 0C37.3096 0 36.7498 0.559813 36.7498 1.25033V8.25216C36.7498 8.94267 37.3096 9.50248 38.0001 9.50248Z" fill="url(#paint5_linear)"/>
<path d="M25.3508 11.9731C25.5825 12.3744 26.0026 12.5986 26.4347 12.5986C26.6468 12.5986 26.8618 12.5446 27.0587 12.4309C27.6567 12.0857 27.8618 11.321 27.5165 10.723L24.0173 4.66139C23.6719 4.06323 22.9073 3.85834 22.3093 4.2036C21.7113 4.54886 21.5063 5.31356 21.8515 5.91155L25.3508 11.9731Z" fill="url(#paint6_linear)"/>
<path d="M64.7202 45.3643L58.6586 41.8651C58.0605 41.5197 57.2958 41.7247 56.9507 42.3229C56.6054 42.9209 56.8103 43.6856 57.4085 44.0308L63.47 47.5301C63.6669 47.6438 63.8818 47.6978 64.094 47.6978C64.5262 47.6978 64.9464 47.4734 65.178 47.0723C65.5232 46.4743 65.3182 45.7096 64.7202 45.3643Z" fill="url(#paint7_linear)"/>
<path d="M11.2798 17.3989L17.3413 20.8981C17.5382 21.0118 17.7531 21.0658 17.9653 21.0658C18.3975 21.0658 18.8177 20.8414 19.0493 20.4403C19.3945 19.8424 19.1897 19.0777 18.5915 18.7324L12.5299 15.2332C11.9319 14.8877 11.1672 15.0928 10.822 15.6909C10.4767 16.2889 10.6816 17.0535 11.2798 17.3989Z" fill="url(#paint8_linear)"/>
<path d="M68.1311 30.1312H61.1293C60.4387 30.1312 59.8789 30.691 59.8789 31.3816C59.8789 32.0721 60.4387 32.6319 61.1293 32.6319H68.1311C68.8216 32.6319 69.3814 32.0721 69.3814 31.3816C69.3814 30.691 68.8218 30.1312 68.1311 30.1312Z" fill="url(#paint9_linear)"/>
<path d="M16.1209 31.3816C16.1209 30.691 15.561 30.1312 14.8705 30.1312H7.8687C7.17819 30.1312 6.61838 30.691 6.61838 31.3816C6.61838 32.0721 7.17819 32.6319 7.8687 32.6319H14.8705C15.5612 32.6319 16.1209 32.0721 16.1209 31.3816Z" fill="url(#paint10_linear)"/>
<path d="M58.0346 21.0658C58.2467 21.0658 58.4617 21.0118 58.6586 20.8981L64.7202 17.3989C65.3182 17.0536 65.5232 16.2889 65.178 15.691C64.8327 15.093 64.0679 14.8879 63.47 15.2332L57.4085 18.7324C56.8105 19.0777 56.6054 19.8424 56.9507 20.4404C57.1822 20.8415 57.6027 21.0658 58.0346 21.0658Z" fill="url(#paint11_linear)"/>
<path d="M17.3413 41.8651L11.2798 45.3643C10.6818 45.7096 10.4767 46.4743 10.822 47.0723C11.0535 47.4734 11.4738 47.6978 11.9059 47.6978C12.118 47.6978 12.333 47.6438 12.5299 47.5301L18.5915 44.0308C19.1895 43.6856 19.3945 42.9209 19.0493 42.3229C18.7042 41.7247 17.939 41.5198 17.3413 41.8651Z" fill="url(#paint12_linear)"/>
<path d="M48.9412 12.4309C49.1381 12.5446 49.353 12.5986 49.5652 12.5986C49.9973 12.5986 50.4176 12.3742 50.6492 11.9731L54.1484 5.91155C54.4937 5.31356 54.2886 4.54886 53.6906 4.2036C53.0928 3.85834 52.3279 4.06323 51.9827 4.66139L48.4834 10.723C48.1382 11.321 48.3432 12.0857 48.9412 12.4309Z" fill="url(#paint13_linear)"/>
<defs>
<linearGradient id="paint0_linear" x1="38" y1="11.6591" x2="38" y2="75.9998" gradientUnits="userSpaceOnUse">
<stop stop-color="#5C258D"/>
<stop offset="1" stop-color="#4389A2"/>
</linearGradient>
<linearGradient id="paint1_linear" x1="24.3234" y1="29.7847" x2="24.3234" y2="34.4791" gradientUnits="userSpaceOnUse">
<stop stop-color="#5C258D"/>
<stop offset="1" stop-color="#4389A2"/>
</linearGradient>
<linearGradient id="paint2_linear" x1="29.3789" y1="36.2029" x2="29.3789" y2="52.0361" gradientUnits="userSpaceOnUse">
<stop stop-color="#5C258D"/>
<stop offset="1" stop-color="#4389A2"/>
</linearGradient>
<linearGradient id="paint3_linear" x1="49.8054" y1="35.3424" x2="49.8054" y2="40.7121" gradientUnits="userSpaceOnUse">
<stop stop-color="#5C258D"/>
<stop offset="1" stop-color="#4389A2"/>
</linearGradient>
<linearGradient id="paint4_linear" x1="44.8764" y1="16.1606" x2="44.8764" y2="33.7022" gradientUnits="userSpaceOnUse">
<stop stop-color="#5C258D"/>
<stop offset="1" stop-color="#4389A2"/>
</linearGradient>
<linearGradient id="paint5_linear" x1="38.0001" y1="0" x2="38.0001" y2="9.50248" gradientUnits="userSpaceOnUse">
<stop stop-color="#5C258D"/>
<stop offset="1" stop-color="#4389A2"/>
</linearGradient>
<linearGradient id="paint6_linear" x1="24.684" y1="4.03589" x2="24.684" y2="12.5986" gradientUnits="userSpaceOnUse">
<stop stop-color="#5C258D"/>
<stop offset="1" stop-color="#4389A2"/>
</linearGradient>
<linearGradient id="paint7_linear" x1="61.0643" y1="41.6973" x2="61.0643" y2="47.6978" gradientUnits="userSpaceOnUse">
<stop stop-color="#5C258D"/>
<stop offset="1" stop-color="#4389A2"/>
</linearGradient>
<linearGradient id="paint8_linear" x1="14.9356" y1="15.0654" x2="14.9356" y2="21.0658" gradientUnits="userSpaceOnUse">
<stop stop-color="#5C258D"/>
<stop offset="1" stop-color="#4389A2"/>
</linearGradient>
<linearGradient id="paint9_linear" x1="64.6302" y1="30.1312" x2="64.6302" y2="32.6319" gradientUnits="userSpaceOnUse">
<stop stop-color="#5C258D"/>
<stop offset="1" stop-color="#4389A2"/>
</linearGradient>
<linearGradient id="paint10_linear" x1="11.3696" y1="30.1312" x2="11.3696" y2="32.6319" gradientUnits="userSpaceOnUse">
<stop stop-color="#5C258D"/>
<stop offset="1" stop-color="#4389A2"/>
</linearGradient>
<linearGradient id="paint11_linear" x1="61.0643" y1="15.0655" x2="61.0643" y2="21.0658" gradientUnits="userSpaceOnUse">
<stop stop-color="#5C258D"/>
<stop offset="1" stop-color="#4389A2"/>
</linearGradient>
<linearGradient id="paint12_linear" x1="14.9356" y1="41.6974" x2="14.9356" y2="47.6978" gradientUnits="userSpaceOnUse">
<stop stop-color="#5C258D"/>
<stop offset="1" stop-color="#4389A2"/>
</linearGradient>
<linearGradient id="paint13_linear" x1="51.3159" y1="4.03589" x2="51.3159" y2="12.5986" gradientUnits="userSpaceOnUse">
<stop stop-color="#5C258D"/>
<stop offset="1" stop-color="#4389A2"/>
</linearGradient>
</defs>
</svg>
