<svg width="76" height="76" viewBox="0 0 76 76" fill="none" xmlns="http://www.w3.org/2000/svg">
<g clip-path="url(#clip0)">
<rect width="76" height="76" fill="white"/>
<path d="M75.5411 35.6513L67.9421 29.3188C67.7207 29.1401 67.4454 29.0413 67.1609 29.0386L56.6197 24.4602C56.8387 24.1209 57.053 23.7807 57.2426 23.4379C62.0612 15.3021 61.9511 7.0118 56.9692 2.80668C54.0405 0.497009 50.2644 -0.450933 46.5921 0.201807C43.2236 0.775737 40.1992 2.60825 38.1311 5.32844C36.0631 2.6084 33.0386 0.775737 29.6701 0.201807C25.998 -0.451379 22.2217 0.496564 19.2932 2.80653C14.3113 7.01165 14.2013 15.3021 19.0013 23.4044C19.1788 23.7255 19.3809 24.0434 19.5841 24.3612L8.36599 29.2446C8.26789 29.2896 8.17587 29.347 8.09246 29.4154C8.08251 29.4231 8.07034 29.4245 8.06055 29.4326L0.461571 35.7652C0.12407 36.0466 -0.0434938 36.4828 0.0186931 36.9178C0.0808801 37.3528 0.364061 37.7244 0.767014 37.8998L7.60535 40.873V62.0685C7.61129 62.1087 7.6193 62.1486 7.6294 62.1879C7.63608 62.3101 7.66042 62.4306 7.70153 62.5458C7.73878 62.6197 7.78345 62.6897 7.83481 62.7547C7.8725 62.8243 7.91673 62.8901 7.96705 62.9511C8.05921 63.0385 8.164 63.1117 8.27798 63.1678C8.31063 63.1856 8.33245 63.2148 8.36703 63.2298L8.37564 63.2337L8.38128 63.2361L37.4965 75.8947L37.5009 75.8956C37.5208 75.9041 37.5438 75.9041 37.5642 75.9117C37.7013 75.9657 37.8471 75.9951 37.9944 75.9986L37.9999 75.9998H38.0007H38.0013H38.0019H38.0026L38.0081 75.9986C38.1555 75.9951 38.3011 75.9657 38.4382 75.9117C38.4587 75.9041 38.4817 75.9042 38.5016 75.8956L38.5059 75.8947L67.6353 63.2298C68.1186 63.02 68.4215 62.5329 68.396 62.0066L68.3914 61.9839C68.3917 61.9736 68.3973 61.965 68.3973 61.9546V40.7588L75.2345 37.7862C75.6377 37.6112 75.9215 37.2395 75.984 36.8044C76.0463 36.3692 75.8788 35.9329 75.5411 35.6513ZM20.927 4.74338C22.7632 3.28295 25.0498 2.50569 27.3956 2.54443C31.4053 2.53968 35.1004 4.71533 37.0416 8.22392C37.2868 8.58487 37.6949 8.80082 38.1313 8.80082C38.5676 8.80082 38.9756 8.58472 39.221 8.22392C40.8631 5.31019 43.7222 3.28355 47.0154 2.69908C49.9535 2.16211 52.9809 2.90597 55.3354 4.74353C59.3378 8.12122 59.2276 15.1142 55.0448 22.1801C51.6955 28.238 42.5369 34.0189 38.1314 36.5481C33.726 34.0187 24.5673 28.2367 21.1995 22.1467C17.0348 15.1141 16.9248 8.12122 20.927 4.74338ZM3.66116 36.3971L9.08374 31.879L35.6117 43.413L30.1908 47.9305L3.66116 36.3971ZM36.7348 72.802L10.1384 61.2384V41.9742L29.8977 50.5649C30.3367 50.7558 30.8458 50.6831 31.2137 50.3769L36.7348 45.7759V72.802ZM38.0002 41.6898L12.0467 30.4048L21.1162 26.4575C25.5529 31.8794 33.0095 36.5758 37.5102 39.1083C37.8954 39.326 38.3667 39.326 38.752 39.1083C43.2324 36.5872 50.6424 31.9216 55.0751 26.5504L63.9533 30.4061L38.0002 41.6898ZM65.8641 61.2378L39.2677 72.802V45.6619L44.79 50.263C45.1575 50.5692 45.6663 50.6419 46.1047 50.4511L65.864 41.8601V61.2378H65.8641ZM45.8117 47.8167L40.4806 43.3748L67.0092 31.8398L72.3402 36.2822L45.8117 47.8167Z" fill="url(#paint0_linear)"/>
<path d="M26.6015 10.1421C26.9375 10.1422 27.2597 10.0089 27.4972 9.77131C27.7346 9.53369 27.8681 9.21148 27.8679 8.87561V7.60916C27.8679 6.90967 27.301 6.34271 26.6015 6.34271C25.902 6.34271 25.335 6.90967 25.335 7.60916V8.87561C25.3349 9.21163 25.4681 9.53384 25.7058 9.77131C25.9434 10.0088 26.2654 10.1424 26.6015 10.1421Z" fill="url(#paint1_linear)"/>
<path d="M26.6015 12.6752C26.2654 12.675 25.9432 12.8083 25.7058 13.0459C25.4681 13.2835 25.3349 13.6057 25.335 13.9416V15.2081C25.335 15.9076 25.902 16.4745 26.6015 16.4745C27.301 16.4745 27.8679 15.9076 27.8679 15.2081V13.9416C27.8681 13.6056 27.7348 13.2834 27.4972 13.0459C27.2597 12.8083 26.9375 12.675 26.6015 12.6752Z" fill="url(#paint2_linear)"/>
<path d="M22.802 12.6752H24.0684C24.7679 12.6752 25.3349 12.1082 25.3349 11.4087C25.3349 10.7092 24.7679 10.1423 24.0684 10.1423H22.802C22.1025 10.1423 21.5355 10.7092 21.5355 11.4087C21.5355 12.1082 22.1025 12.6752 22.802 12.6752Z" fill="url(#paint3_linear)"/>
<path d="M29.1345 12.6752H30.401C31.1004 12.6752 31.6674 12.1082 31.6674 11.4087C31.6674 10.7092 31.1003 10.1423 30.401 10.1423H29.1345C28.435 10.1423 27.8681 10.7092 27.8681 11.4087C27.8681 12.1082 28.435 12.6752 29.1345 12.6752Z" fill="url(#paint4_linear)"/>
</g>
<defs>
<linearGradient id="paint0_linear" x1="38.0014" y1="-0.00012207" x2="38.0014" y2="75.9998" gradientUnits="userSpaceOnUse">
<stop stop-color="#5C258D"/>
<stop offset="1" stop-color="#4389A2"/>
</linearGradient>
<linearGradient id="paint1_linear" x1="26.6015" y1="6.34271" x2="26.6015" y2="10.1421" gradientUnits="userSpaceOnUse">
<stop stop-color="#5C258D"/>
<stop offset="1" stop-color="#4389A2"/>
</linearGradient>
<linearGradient id="paint2_linear" x1="26.6015" y1="12.6752" x2="26.6015" y2="16.4745" gradientUnits="userSpaceOnUse">
<stop stop-color="#5C258D"/>
<stop offset="1" stop-color="#4389A2"/>
</linearGradient>
<linearGradient id="paint3_linear" x1="23.4352" y1="10.1423" x2="23.4352" y2="12.6752" gradientUnits="userSpaceOnUse">
<stop stop-color="#5C258D"/>
<stop offset="1" stop-color="#4389A2"/>
</linearGradient>
<linearGradient id="paint4_linear" x1="29.7677" y1="10.1423" x2="29.7677" y2="12.6752" gradientUnits="userSpaceOnUse">
<stop stop-color="#5C258D"/>
<stop offset="1" stop-color="#4389A2"/>
</linearGradient>
<clipPath id="clip0">
<rect width="76" height="76" fill="white"/>
</clipPath>
</defs>
</svg>
