<svg width="76" height="76" viewBox="0 0 76 76" fill="none" xmlns="http://www.w3.org/2000/svg">
<rect width="76" height="76" fill="white"/>
<path d="M71.9945 10.9629C71.9945 8.396 69.906 6.30743 67.339 6.30743C66.7082 6.30743 66.1069 6.43442 65.5578 6.66287C65.1038 4.56851 63.2373 2.99484 61.009 2.99484C60.3503 2.99484 59.7235 3.13284 59.1547 3.38101C58.5992 1.43161 56.8034 0 54.6783 0C52.5538 0 50.7581 1.43161 50.202 3.38101C49.6338 3.13284 49.007 2.99484 48.3483 2.99484C45.7814 2.99484 43.6934 5.08282 43.6934 7.64975V19.3125C42.6329 18.1888 41.0464 17.6072 39.431 17.8919C38.1705 18.1146 37.0775 18.8185 36.3539 19.8744C36.2762 19.9875 36.2048 20.104 36.1382 20.2223C35.509 19.8831 34.79 19.6906 34.027 19.6906C33.4582 19.6906 32.9149 19.799 32.4139 19.9933C31.9407 18.034 30.174 16.5734 28.0715 16.5734C27.4749 16.5734 26.9055 16.6923 26.3848 16.9056C25.8212 15.0838 24.1205 13.7566 22.116 13.7566C20.1115 13.7566 18.4109 15.0838 17.8473 16.9056C17.3266 16.6923 16.7572 16.5734 16.1605 16.5734C13.6968 16.5734 11.6929 18.5779 11.6929 21.041V31.7998C10.68 30.8234 9.23095 30.3311 7.75527 30.5909C6.54632 30.8043 5.4974 31.4798 4.80334 32.4927C4.10928 33.5057 3.85763 34.7274 4.09478 35.9323L5.65685 43.8534C6.27844 47.006 7.80978 49.8715 10.085 52.1398L12.874 54.9207V59.6696H11.3021C10.4822 59.6696 9.81774 60.334 9.81774 61.1539V74.5156C9.81774 75.3355 10.4822 76 11.3021 76C12.1214 76 12.7865 75.3355 12.7865 74.5156V62.6383H32.1622V74.5156C32.1622 75.3355 32.8267 76 33.6466 76C34.4665 76 35.131 75.3355 35.131 74.5156V61.1539C35.131 60.334 34.4665 59.6696 33.6466 59.6696H32.1141V54.9207L33.7626 53.2775C36.8142 50.2345 38.4946 46.1849 38.4946 41.8756V35.6604C39.3354 37.5019 40.5008 39.1863 41.9568 40.6382L44.9487 43.6215V49.4297H43.1849C42.365 49.4297 41.7005 50.0942 41.7005 50.9141V74.5156C41.7005 75.3355 42.365 76 43.1849 76C44.0042 76 44.6693 75.3355 44.6693 74.5156V58.3359H51.8528C52.6727 58.3359 53.3372 57.6714 53.3372 56.8516C53.3372 56.0317 52.6727 55.3672 51.8528 55.3672H44.6693V52.3984H65.4505V74.5156C65.4505 75.3355 66.115 76 66.9349 76C67.7542 76 68.4193 75.3355 68.4193 74.5156V50.9141C68.4193 50.0942 67.7542 49.4297 66.9349 49.4297H65.2122V43.6215L66.9917 41.8478C70.2173 38.6309 71.9939 34.3499 71.9939 29.7948V28.253C71.9939 27.4331 71.3294 26.7686 70.5096 26.7686C69.6903 26.7686 69.0252 27.4331 69.0252 28.253V29.7948C69.0252 33.5556 67.5588 37.0897 64.8956 39.7453L62.6801 41.9545C62.4006 42.2328 62.2434 42.6114 62.2434 43.0057V49.4297H47.9175V43.0057C47.9175 42.6108 47.7603 42.2328 47.4809 41.9545L44.0529 38.5363C42.0675 36.5562 40.731 34.0554 40.1889 31.3047L38.5282 22.8849C38.436 22.4181 38.5334 21.945 38.8025 21.5524C39.0715 21.1605 39.478 20.8984 39.9465 20.816C40.8551 20.6554 41.7376 21.2318 41.9568 22.127L42.8149 25.6263C43.0533 26.5999 43.9485 27.2191 44.9441 27.0991C45.9397 26.9791 46.6621 26.1638 46.6621 25.1613V7.64975C46.6621 6.7197 47.4182 5.96359 48.3483 5.96359C49.2146 5.96359 49.9295 6.61996 50.0234 7.46188V17.2199C50.0234 17.2791 50.0275 17.337 50.0345 17.3944V18.3477C50.0345 19.1676 50.6989 19.8321 51.5188 19.8321C52.3387 19.8321 53.0032 19.1676 53.0032 18.3477V7.64975C53.0032 7.54712 52.9986 7.44507 52.9922 7.3436V4.65491C52.9922 3.72543 53.7489 2.96875 54.6783 2.96875C55.6084 2.96875 56.3645 3.72543 56.3645 4.65491V7.3436C56.3581 7.44507 56.3535 7.54712 56.3535 7.64975V17.2199C56.3535 17.2791 56.3581 17.337 56.3645 17.3944V18.3477C56.3645 19.1676 57.0296 19.8321 57.8489 19.8321C58.6688 19.8321 59.3333 19.1676 59.3333 18.3477V7.46188C59.4272 6.61996 60.1421 5.96359 61.0084 5.96359C61.9385 5.96359 62.6946 6.7197 62.6946 7.64975V10.6568C62.6882 10.7582 62.6835 10.8597 62.6835 10.9629V17.2199C62.6835 17.2791 62.6882 17.337 62.6946 17.3944V18.3477C62.6946 19.1676 63.3596 19.8321 64.1789 19.8321C64.9988 19.8321 65.6633 19.1676 65.6633 18.3477V10.7745C65.7572 9.93314 66.4728 9.27618 67.3384 9.27618C68.2685 9.27618 69.0252 10.0329 69.0252 10.9629V16.3774C69.0252 17.1973 69.6897 17.8618 70.5096 17.8618C71.3289 17.8618 71.9939 17.1973 71.9939 16.3774V10.9629H71.9945ZM35.5258 41.8756C35.5258 45.3906 34.1551 48.6933 31.6665 51.175L29.582 53.2537C29.3025 53.532 29.1454 53.9101 29.1454 54.3049V59.6696H15.8428V54.3049C15.8428 53.9101 15.6857 53.532 15.4062 53.2537L12.1817 50.0379C10.3257 48.1871 9.07672 45.8504 8.56994 43.2788L7.00787 35.3577C6.92611 34.942 7.01251 34.5204 7.25256 34.1708C7.49203 33.8211 7.85385 33.588 8.27075 33.5144C9.08077 33.3723 9.86645 33.8855 10.0619 34.6828L10.869 37.9751C11.1044 38.9347 11.9863 39.5447 12.9686 39.4264C13.9496 39.3081 14.6617 38.505 14.6617 37.5164V21.041C14.6617 20.2148 15.3343 19.5421 16.1605 19.5421C16.9288 19.5421 17.5637 20.1243 17.6484 20.8705V30.0447C17.6484 30.1027 17.6525 30.1589 17.6588 30.2146V31.1064C17.6588 31.9262 18.3239 32.5907 19.1432 32.5907C19.9631 32.5907 20.6276 31.9262 20.6276 31.1064V21.041C20.6276 20.9436 20.6235 20.8474 20.6172 20.7511V18.2236C20.6172 17.3973 21.2898 16.7253 22.116 16.7253C22.9429 16.7253 23.6149 17.3973 23.6149 18.2236V20.7494C23.6085 20.8462 23.6045 20.943 23.6045 21.041V30.0447C23.6045 30.1027 23.6085 30.1595 23.6149 30.2157V31.1064C23.6149 31.9257 24.2794 32.5907 25.0993 32.5907C25.9192 32.5907 26.5836 31.9257 26.5836 31.1064V20.8694C26.6689 20.1237 27.3032 19.5421 28.0715 19.5421C28.8983 19.5421 29.5704 20.2148 29.5704 21.041V23.8665C29.564 23.9628 29.5599 24.0602 29.5599 24.1582V30.0447C29.5599 30.1027 29.564 30.1595 29.5704 30.2157V31.1064C29.5704 31.9257 30.2354 32.5907 31.0547 32.5907C31.8746 32.5907 32.5391 31.9257 32.5391 31.1064V23.9866C32.6249 23.2409 33.2593 22.6593 34.0276 22.6593C34.8538 22.6593 35.5258 23.3319 35.5258 24.1582V41.8756Z" fill="url(#paint0_linear)"/>
<path d="M70.5096 20.83C70.1187 20.83 69.7361 20.9888 69.4601 21.2654C69.1835 21.5414 69.0252 21.9241 69.0252 22.3143C69.0252 22.7063 69.1835 23.0878 69.4601 23.3656C69.7372 23.6416 70.1187 23.7987 70.5096 23.7987C70.8998 23.7987 71.2825 23.6416 71.5585 23.3656C71.8362 23.0878 71.9939 22.7063 71.9939 22.3143C71.9939 21.9241 71.8362 21.5414 71.5585 21.2654C71.2825 20.9888 70.9009 20.83 70.5096 20.83Z" fill="url(#paint1_linear)"/>
<path d="M57.7897 55.3672C57.3995 55.3672 57.018 55.5261 56.7402 55.8021C56.4642 56.0781 56.3065 56.4613 56.3065 56.8516C56.3065 57.2418 56.4642 57.6251 56.7402 57.9011C57.018 58.1771 57.3995 58.3359 57.7897 58.3359C58.1817 58.3359 58.5632 58.1771 58.8404 57.9011C59.117 57.6251 59.2753 57.2418 59.2753 56.8516C59.2753 56.4613 59.117 56.0781 58.8404 55.8021C58.5632 55.5261 58.1817 55.3672 57.7897 55.3672Z" fill="url(#paint2_linear)"/>
<defs>
<linearGradient id="paint0_linear" x1="38.0012" y1="0" x2="38.0012" y2="76" gradientUnits="userSpaceOnUse">
<stop stop-color="#5C258D"/>
<stop offset="1" stop-color="#4389A2"/>
</linearGradient>
<linearGradient id="paint1_linear" x1="70.5096" y1="20.83" x2="70.5096" y2="23.7987" gradientUnits="userSpaceOnUse">
<stop stop-color="#5C258D"/>
<stop offset="1" stop-color="#4389A2"/>
</linearGradient>
<linearGradient id="paint2_linear" x1="57.7909" y1="55.3672" x2="57.7909" y2="58.3359" gradientUnits="userSpaceOnUse">
<stop stop-color="#5C258D"/>
<stop offset="1" stop-color="#4389A2"/>
</linearGradient>
</defs>
</svg>
